<svg height="512" viewBox="0 0 64 64" width="512" xmlns="http://www.w3.org/2000/svg"><path d="m3 3h19v58h-19z" fill="#e4544f"/><path d="m42 3h19v58h-19z" fill="#e4544f"/><path d="m22 3h20v58h-20z" fill="#fcec97"/><path d="m7 7h11v4h-11z" fill="#fcec97"/><path d="m7 11h11v4h-11z" fill="#f1c056"/><path d="m6 56h13v2h-13z" fill="#f1c056"/><path d="m6 52h13v2h-13z" fill="#f1c056"/><path d="m6 48h13v2h-13z" fill="#f1c056"/><path d="m7 27h4v10h-4z" fill="#f1c056"/><path d="m46 7h11v4h-11z" fill="#fcec97"/><path d="m46 11h11v4h-11z" fill="#f1c056"/><path d="m45 56h13v2h-13z" fill="#f1c056"/><path d="m45 52h13v2h-13z" fill="#f1c056"/><path d="m45 48h13v2h-13z" fill="#f1c056"/><path d="m46 27h4v10h-4z" fill="#f1c056"/><path d="m26 57h12v4h-12z" fill="#e4544f"/><path d="m28 53h14v4h-14z" fill="#7fc99d"/><path d="m28 49h14v4h-14z" fill="#e4544f"/><path d="m26 45h12v4h-12z" fill="#7fc99d"/><path d="m26 20h4v12h-4z" fill="#e4544f"/><path d="m40 29-4 3-6-11 4-2z" fill="#f1997e"/><path d="m26 24h4v4h-4z" fill="#7fc99d"/><path d="m30 45h4v4h-4z" fill="#f1c056"/><path d="m38 49h4v4h-4z" fill="#2d75bb"/><path d="m38 53h4v4h-4z" fill="#f1c056"/><g fill="#2d75bb"><path d="m30 21 4-2 3 5-4.214 2.107z"/><path d="m6 18h2v2h-2z"/><path d="m10 18h2v2h-2z"/><path d="m14 18h2v2h-2z"/><path d="m56 44h2v2h-2z"/><path d="m52 44h2v2h-2z"/><path d="m48 44h2v2h-2z"/><path d="m53 18h8v2h-8z"/><path d="m55 22h6v2h-6z"/><path d="m22 31h20v2h-20z"/></g></svg>